<?xml version="1.0" encoding="utf-8"?>
<!-- Generator: Adobe Illustrator 22.0.0, SVG Export Plug-In . SVG Version: 6.00 Build 0)  -->
<svg version="1.1" id="Layer_1" xmlns="http://www.w3.org/2000/svg" xmlns:xlink="http://www.w3.org/1999/xlink" x="0px" y="0px"
	 viewBox="0 0 96 96" style="enable-background:new 0 0 96 96;" xml:space="preserve">
<style type="text/css">
	.st0{fill:#FF5200;}
</style>
<title></title>
<g id="Layer_2_1_">
	<g id="Layer_2-2">
		<path class="st0" d="M48,0C21.5,0,0,21.5,0,48s21.5,48,48,48s48-21.5,48-48S74.5,0,48,0z M35.4,46.7v23.7H25V40.5h10.4V46.7z
			 M30.2,36.1c-2.9,0-5.2-2.3-5.2-5.2s2.3-5.2,5.2-5.2s5.2,2.3,5.2,5.2v0C35.4,33.7,33.1,36.1,30.2,36.1z M69.7,70.3h-8.9V55.8
			c0-3.5-0.4-7.9-5.2-7.9s-5.5,3.8-5.5,7.7v14.8h-8.7V40.5h8.3v4h0.1c1.3-2.4,4.3-4,8.8-4c7.6,0,10.2,3.5,10.9,9.2
			c0.2,1.4,0.2,2.9,0.2,4.3V70.3z"/>
	</g>
</g>
</svg>
