<?xml version="1.0" encoding="utf-8"?>
<!-- Generator: Adobe Illustrator 22.0.0, SVG Export Plug-In . SVG Version: 6.00 Build 0)  -->
<svg version="1.1" id="Layer_1" xmlns="http://www.w3.org/2000/svg" xmlns:xlink="http://www.w3.org/1999/xlink" x="0px" y="0px"
	 viewBox="0 0 96 96" style="enable-background:new 0 0 96 96;" xml:space="preserve">
<style type="text/css">
	.st0{fill:#FF5200;}
	.st1{fill:none;}
</style>
<title></title>
<g id="Layer_2_1_">
	<g id="Layer_2-2">
		<path class="st0" d="M60.7,26H34.5c-4.9,0-8.8,3.9-8.8,8.8V61c0,4.9,3.9,8.8,8.8,8.8h26.2c4.9,0,8.8-3.9,8.8-8.8V34.8
			C69.5,30,65.6,26,60.7,26z M47.6,63.9c-8.8,0-16-7.2-16-16c0-8.8,7.2-16,16-16c8.8,0,16,7.2,16,16C63.6,56.8,56.4,63.9,47.6,63.9z
			 M63.3,34.9C63.3,34.9,63.3,34.9,63.3,34.9L63.3,34.9c-1.4,0-2.6-1.1-2.6-2.5c0-1.4,1.2-2.6,2.6-2.6s2.6,1.2,2.6,2.6
			C65.9,33.7,64.7,34.9,63.3,34.9z"/>
		<path class="st0" d="M47.6,36.8c-6.1,0-11.1,5-11.1,11.1S41.5,59,47.6,59c6.1,0,11.1-5,11.1-11.1C58.7,41.8,53.7,36.8,47.6,36.8z"
			/>
		<path class="st0" d="M48,0C21.5,0,0,21.5,0,48s21.5,48,48,48s48-21.5,48-48S74.5,0,48,0z M73.6,61.6c0,6.8-5.5,12.3-12.3,12.3
			H33.9c-6.8,0-12.3-5.5-12.3-12.3V34.2c0-6.8,5.5-12.3,12.3-12.3h27.4c6.8,0,12.3,5.5,12.3,12.3V61.6z"/>
		<path class="st1" d="M61.3,22H33.9c-6.8,0-12.3,5.5-12.3,12.3v27.4c0,6.8,5.5,12.3,12.3,12.3h27.4c6.8,0,12.3-5.5,12.3-12.3V34.2
			C73.5,27.5,68.1,22,61.3,22z M72.4,61c0,6.5-5.3,11.7-11.7,11.8H34.5c-6.5,0-11.7-5.3-11.7-11.8V34.8c0-6.5,5.3-11.7,11.7-11.7
			h26.2c6.5,0,11.7,5.3,11.7,11.7V61z"/>
		<path class="st1" d="M69.5,61c0,4.9-3.9,8.8-8.8,8.8H34.5c-4.9,0-8.8-3.9-8.8-8.8V34.8c0-4.9,3.9-8.8,8.8-8.8h26.2
			c4.9,0,8.8,4,8.8,8.8V61z"/>
	</g>
</g>
</svg>
