<svg id="Layer_1" data-name="Layer 1" xmlns="http://www.w3.org/2000/svg" xmlns:xlink="http://www.w3.org/1999/xlink" viewBox="0 0 521.95 582.98"><defs><style>.cls-1{fill:url(#linear-gradient);}.cls-2{fill:#f15523;}.cls-3,.cls-4{fill:none;stroke-miterlimit:10;}.cls-3{stroke:#000;}.cls-4{stroke:#515051;}.cls-5{fill:url(#linear-gradient-2);}.cls-6{fill:url(#linear-gradient-3);}</style><linearGradient id="linear-gradient" x1="233.18" y1="320.21" x2="433.08" y2="320.21" gradientUnits="userSpaceOnUse"><stop offset="0" stop-color="#fff"/><stop offset="0.08" stop-color="#fcdacb"/><stop offset="0.17" stop-color="#f9b497"/><stop offset="0.25" stop-color="#f79971"/><stop offset="0.32" stop-color="#f5885a"/><stop offset="0.36" stop-color="#f58251"/><stop offset="0.47" stop-color="#f36e3d"/><stop offset="0.6" stop-color="#f2602e"/><stop offset="0.75" stop-color="#f15826"/><stop offset="1" stop-color="#f15523"/></linearGradient><linearGradient id="linear-gradient-2" x1="278.98" y1="426.47" x2="618.38" y2="426.47" gradientUnits="userSpaceOnUse"><stop offset="0" stop-color="#fff"/><stop offset="0.05" stop-color="#fde7e0"/><stop offset="0.13" stop-color="#fac5b4"/><stop offset="0.22" stop-color="#f8a78d"/><stop offset="0.31" stop-color="#f68d6c"/><stop offset="0.4" stop-color="#f47951"/><stop offset="0.51" stop-color="#f3693d"/><stop offset="0.63" stop-color="#f25e2e"/><stop offset="0.77" stop-color="#f15726"/><stop offset="1" stop-color="#f15523"/></linearGradient><linearGradient id="linear-gradient-3" x1="299.28" y1="337.77" x2="628.93" y2="337.77" xlink:href="#linear-gradient-2"/></defs><title>Logo</title><path class="cls-1" d="M305,242c-7.2,22.77-14.6,46.16-22,69.39-14.13,25.67-51.46,86.56-97,87L220,299C265.84,298.61,291.2,269.63,305,242Z" transform="translate(-106.98 -46.28)"/><path class="cls-2" d="M283,311.42q-4.38,13.8-8.77,27.45-3.13,9.86-6.25,19.53c-3.16,9.83-6.27,19.51-9.34,29C236.11,457,216.55,515.7,207.78,537.49,180.52,605.1,107,629.27,107,629.27l79-230.88C231.52,398,268.85,337.09,283,311.42Z" transform="translate(-106.98 -46.28)"/><path class="cls-2" d="M366.27,46.28s-8.14,26.27-20.79,66.77c-7.11,22.78-15.64,50-25,79.64-5,15.88-10.2,32.44-15.54,49.34-13.79,27.6-39.15,56.58-85,57L306.5,46.5h0Z" transform="translate(-106.98 -46.28)"/><path class="cls-3" d="M219,299" transform="translate(-106.98 -46.28)"/><path class="cls-4" d="M430.85,367.85" transform="translate(-106.98 -46.28)"/><path class="cls-5" d="M472.57,494.55c-107.27,0-186.43-70.68-213.95-107.18,3.07-9.46,6.18-19.14,9.34-29,0,0,24.82,53.08,178.38,56.51C455.56,443,464.76,470.88,472.57,494.55Z" transform="translate(-106.98 -46.28)"/><path class="cls-4" d="M449.87,415l-3.53-.08" transform="translate(-106.98 -46.28)"/><path class="cls-6" d="M628.93,629.27h-67c-43.15,0-61.29-51.92-68.14-71.08-1.89-5.3-10.19-30.27-21.22-63.64-7.81-23.67-17-51.57-26.23-79.64-24.84-75.46-50-152.27-50-152.27s-31.22-91.81-50.83-149.59h0c-8-23.6-9-26.09-10.18-29.75C330.12,72.15,328.41,48,306.53,46.5h0c-2.16-.14-4.55-.22-7.22-.22h67c29.89,0,22.38,3.24,30.89,21.58,7.63,18.1,66.15,194.78,66.15,194.78S558,542.49,562.71,556.46C572.31,579.39,585.79,629.27,628.93,629.27Z" transform="translate(-106.98 -46.28)"/></svg>