<?xml version="1.0" encoding="utf-8"?>
<!-- Generator: Adobe Illustrator 22.0.0, SVG Export Plug-In . SVG Version: 6.00 Build 0)  -->
<svg version="1.1" id="Layer_1" xmlns="http://www.w3.org/2000/svg" xmlns:xlink="http://www.w3.org/1999/xlink" x="0px" y="0px"
	 viewBox="0 0 96 96" style="enable-background:new 0 0 96 96;" xml:space="preserve">
<style type="text/css">
	.st0{fill:#FF5200;}
</style>
<title></title>
<g id="Layer_2_1_">
	<g id="Layer_2-2">
		<path class="st0" d="M48,0C21.5,0,0,21.5,0,48s21.5,48,48,48s48-21.5,48-48S74.5,0,48,0z M67.2,45.3c-1.9,8.3-7.7,13.9-15.5,13.9
			c-3.3,0-6.3-1.7-7.3-3.7c0,0-1.8,6.7-2.1,8c-1.3,4.6-5.1,9.1-5.4,9.5s-0.7,0.2-0.7-0.2c-0.1-0.6-1.1-6.3,0.1-11
			c0.5-2.4,3.8-15.8,3.8-15.8c-0.4-0.8-0.6-1.6-0.8-2.5c-0.1-0.7-0.2-1.4-0.2-2.1c0-4.3,2.6-7.5,5.8-7.5c2.8,0,4.1,2,4.1,4.4
			c-0.1,1.7-0.5,3.4-1.1,5c-0.5,1.8-1.2,3.6-1.6,5.3c-0.8,3.1,1.6,5.6,4.7,5.6c4.4,0,7.7-4.2,9-10.1c0.4-1.8,0.6-3.6,0.5-5.4
			c0-6.4-4.4-11.1-12.5-11.1c-9.1,0-14.8,6.6-14.8,13.9c0,0.9,0.1,1.8,0.4,2.7c0.3,1.1,0.9,2.1,1.6,3c0.5,0.4,0.7,1.1,0.4,1.6
			c-0.2,0.5-0.5,1.8-0.6,2.3c-0.1,0.5-0.6,0.9-1.1,0.8c-0.1,0-0.2-0.1-0.3-0.1c-2.8-1.2-4.9-3.7-5.6-6.8c-0.4-1.4-0.6-2.9-0.5-4.4
			c0-8.3,7.2-18.1,21.4-18.1c11.5,0,19,8,19,16.6C67.8,41.4,67.6,43.4,67.2,45.3z"/>
	</g>
</g>
</svg>
